<?xml version="1.0" encoding="UTF-8"?>
<svg width="22px" height="25px" viewBox="0 0 22 25" version="1.1" xmlns="http://www.w3.org/2000/svg" xmlns:xlink="http://www.w3.org/1999/xlink">
    <!-- Generator: Sketch 45.1 (43504) - http://www.bohemiancoding.com/sketch -->
    <title>PDF - Icon</title>
    <desc>Created with Sketch.</desc>
    <defs></defs>
    <g id="Page-1" stroke="none" stroke-width="1" fill="none" fill-rule="evenodd">
        <g id="Ford-Fiesta---Landing" transform="translate(-1066.000000, -1885.000000)" fill-rule="nonzero" fill="#00417B">
            <g id="Specificatios" transform="translate(721.000000, 1151.000000)">
                <g id="CTA---Register" transform="translate(3.000000, 716.000000)">
                    <g id="PDF---Icon" transform="translate(342.000000, 18.000000)">
                        <path d="M5.68378399,12.3983115 C5.68378399,11.7467329 5.23134282,11.3578593 4.4329043,11.3578593 C4.10720289,11.3578593 3.88653952,11.3892697 3.77082634,11.4207679 L3.77082634,13.5130503 C3.90762621,13.5441092 4.07579252,13.5547404 4.30642813,13.5547404 C5.15828625,13.5547404 5.68378399,13.1238252 5.68378399,12.3983115 Z" id="Shape"></path>
                        <path d="M10.6257121,11.3788582 C10.2678974,11.3788582 10.0371739,11.4103564 9.90002261,11.4418986 L9.90002261,16.0775865 C10.0369103,16.1096119 10.2577055,16.1096119 10.4575018,16.1096119 C11.9079582,16.1197598 12.8540914,15.3212335 12.8540914,13.6286756 C12.8647226,12.1564296 12.0024968,11.3788582 10.6257121,11.3788582 Z" id="Shape"></path>
                        <path d="M20.0949952,8.65516141 L19.5139692,8.65516141 L19.5139692,5.85168672 C19.5139692,5.83420234 19.5112016,5.81658618 19.5088733,5.79888215 C19.5079507,5.68756203 19.4725427,5.57821878 19.3963231,5.49158765 L14.7310259,0.162279609 C14.7296202,0.160917761 14.7282583,0.160434524 14.7272918,0.158940884 C14.6994838,0.127881955 14.667063,0.102050766 14.6327971,0.0796900949 C14.6226492,0.072880853 14.6124133,0.067169876 14.6017821,0.0612831766 C14.5720851,0.045072788 14.5405868,0.0316300266 14.5081661,0.0219213657 C14.4993799,0.0194612525 14.4914724,0.0158589439 14.4826863,0.0135745531 C14.447454,0.00522774051 14.4108598,0 14.3737824,0 L2.90820523,0 C2.38464042,0 1.95930443,0.425819234 1.95930443,0.94894473 L1.95930443,8.65494176 L1.3784102,8.65494176 C0.62943753,8.65494176 0.0221410186,9.26197469 0.0221410186,10.0112109 L0.0221410186,17.0640479 C0.0221410186,17.812757 0.62943753,18.4201853 1.3784102,18.4201853 L1.95934836,18.4201853 L1.95934836,23.2480696 C1.95934836,23.7711511 2.38468436,24.1970143 2.90824916,24.1970143 L18.5651123,24.1970143 C19.0881939,24.1970143 19.5140131,23.7711951 19.5140131,23.2480696 L19.5140131,18.4201853 L20.0950392,18.4201853 C20.8437922,18.4201853 21.4512205,17.812757 21.4512205,17.0640479 L21.4512205,10.0114306 C21.4511766,9.26223827 20.8437482,8.65516141 20.0949952,8.65516141 Z M2.90820523,0.949120452 L13.899332,0.949120452 L13.899332,5.80402203 C13.899332,6.06615587 14.112,6.27847243 14.3737824,6.27847243 L18.5650684,6.27847243 L18.5650684,8.65546893 L2.90820523,8.65546893 L2.90820523,0.949120452 Z M14.5567972,13.5755635 C14.5567972,14.9319645 14.0628856,15.8672029 13.3785787,16.4456809 C12.6330326,17.0658491 11.4974708,17.3600523 10.1103184,17.3600523 C9.28003016,17.3600523 8.69149201,17.3074673 8.2915479,17.2551021 L8.2915479,10.2957933 C8.88017391,10.2013865 9.64803674,10.1488016 10.4575018,10.1488016 C11.8023051,10.1488016 12.6750303,10.3907713 13.3586342,10.9055499 C14.0941641,11.4522662 14.5567972,12.3245959 14.5567972,13.5755635 Z M2.18335045,17.2866442 L2.18335045,10.2957933 C2.67717424,10.2121495 3.37132153,10.1488016 4.34895294,10.1488016 C5.3369959,10.1488016 6.04146688,10.3380546 6.51433578,10.7167363 C6.96646944,11.0739359 7.27060093,11.6627376 7.27060093,12.3565774 C7.27060093,13.0506369 7.03996532,13.6392629 6.61915417,14.0384602 C6.07256974,14.5536781 5.26323643,14.7851045 4.31688361,14.7851045 C4.10698324,14.7851045 3.91711522,14.7744294 3.77060669,14.7533427 L3.77060669,17.28682 L2.18335045,17.28682 L2.18335045,17.2866442 Z M18.5651123,22.9912074 L2.90820523,22.9912074 L2.90820523,18.4201853 L18.5650684,18.4201853 L18.5650684,22.9912074 L18.5651123,22.9912074 Z M19.9400081,11.5153944 L17.2167946,11.5153944 L17.2167946,13.1342807 L19.760947,13.1342807 L19.760947,14.4378771 L17.2167946,14.4378771 L17.2167946,17.2866882 L15.6092424,17.2866882 L15.6092424,10.2013865 L19.9400081,10.2013865 L19.9400081,11.5153944 Z" id="Shape"></path>
                    </g>
                </g>
            </g>
        </g>
    </g>
</svg>